<svg width="20" height="12" viewBox="0 0 20 12" fill="none" xmlns="http://www.w3.org/2000/svg">
<path d="M0.395258 0.690309C0.658762 0.426799 0.970752 0.295044 1.33123 0.295044C1.6917 0.295044 2.00334 0.426799 2.26614 0.690309L9.98683 8.41115L17.7339 0.663958C17.9798 0.418015 18.2872 0.295044 18.6561 0.295044C19.025 0.295044 19.3412 0.426799 19.6047 0.690309C19.8682 0.953819 20 1.26581 20 1.6263C20 1.98678 19.8682 2.29842 19.6047 2.56123L10.7246 11.4152C10.6192 11.5206 10.5051 11.5954 10.3821 11.6397C10.2591 11.6839 10.1274 11.7057 9.98683 11.705C9.84629 11.705 9.71454 11.6829 9.59157 11.6386C9.4686 11.5944 9.35441 11.5199 9.24901 11.4152L0.368908 2.53488C0.12297 2.28894 8.70483e-07 1.98572 8.70483e-07 1.62524C8.70483e-07 1.26476 0.131753 0.953116 0.395258 0.690309Z" fill="#808191"/>
</svg>
