<svg width="21" height="21" viewBox="0 0 21 21" fill="none" xmlns="http://www.w3.org/2000/svg">
<path d="M10.425 12.5543L2.97252 20.0068C2.69368 20.2856 2.3388 20.425 1.90788 20.425C1.47695 20.425 1.12207 20.2856 0.843238 20.0068C0.564404 19.728 0.424988 19.3731 0.424988 18.9422C0.424988 18.5112 0.564404 18.1564 0.843238 17.8775L8.29571 10.425L0.843238 2.97258C0.564404 2.69374 0.424988 2.33886 0.424988 1.90794C0.424988 1.47701 0.564404 1.12213 0.843238 0.843299C1.12207 0.564465 1.47695 0.425049 1.90788 0.425049C2.3388 0.425049 2.69368 0.564465 2.97252 0.843299L10.425 8.29577L17.8775 0.843299C18.1563 0.564465 18.5112 0.425049 18.9421 0.425049C19.373 0.425049 19.7279 0.564465 20.0067 0.843299C20.2856 1.12213 20.425 1.47701 20.425 1.90794C20.425 2.33886 20.2856 2.69374 20.0067 2.97258L12.5543 10.425L20.0067 17.8775C20.2856 18.1564 20.425 18.5112 20.425 18.9422C20.425 19.3731 20.2856 19.728 20.0067 20.0068C19.7279 20.2856 19.373 20.425 18.9421 20.425C18.5112 20.425 18.1563 20.2856 17.8775 20.0068L10.425 12.5543Z" fill="#808191"/>
</svg>
