<svg width="22" height="23" viewBox="0 0 22 23" fill="none" xmlns="http://www.w3.org/2000/svg">
<path d="M10.95 22.2C10.6667 22.2 10.429 22.1043 10.237 21.913C10.045 21.7217 9.94933 21.484 9.95 21.2V20.2C7.86667 19.9667 6.079 19.1043 4.587 17.613C3.095 16.1217 2.23267 14.334 2 12.25H1C0.716667 12.25 0.479333 12.154 0.288 11.962C0.0966668 11.77 0.000666667 11.5327 0 11.25C0 10.9667 0.0960001 10.729 0.288 10.537C0.48 10.345 0.717333 10.2493 1 10.25H2C2.23333 8.16665 3.096 6.37899 4.588 4.88699C6.08 3.39499 7.86733 2.53265 9.95 2.29999V1.29999C9.95 1.01665 10.046 0.779321 10.238 0.587988C10.43 0.396655 10.6673 0.300654 10.95 0.299988C11.2333 0.299988 11.471 0.395988 11.663 0.587988C11.855 0.779988 11.9507 1.01732 11.95 1.29999V2.29999C14.0333 2.53332 15.821 3.39599 17.313 4.88799C18.805 6.37999 19.6673 8.16732 19.9 10.25H20.9C21.1833 10.25 21.421 10.346 21.613 10.538C21.805 10.73 21.9007 10.9673 21.9 11.25C21.9 11.5333 21.8043 11.771 21.613 11.963C21.4217 12.155 21.184 12.2507 20.9 12.25H19.9C19.6667 14.3333 18.8043 16.121 17.313 17.613C15.8217 19.105 14.034 19.9673 11.95 20.2V21.2C11.95 21.4833 11.854 21.721 11.662 21.913C11.47 22.105 11.2327 22.2007 10.95 22.2ZM10.95 18.25C12.8833 18.25 14.5333 17.5667 15.9 16.2C17.2667 14.8333 17.95 13.1833 17.95 11.25C17.95 9.31665 17.2667 7.66665 15.9 6.29999C14.5333 4.93332 12.8833 4.24999 10.95 4.24999C9.01667 4.24999 7.36667 4.93332 6 6.29999C4.63333 7.66665 3.95 9.31665 3.95 11.25C3.95 13.1833 4.63333 14.8333 6 16.2C7.36667 17.5667 9.01667 18.25 10.95 18.25ZM10.95 15.25C9.85 15.25 8.90833 14.8583 8.125 14.075C7.34167 13.2917 6.95 12.35 6.95 11.25C6.95 10.15 7.34167 9.20832 8.125 8.42499C8.90833 7.64165 9.85 7.24999 10.95 7.24999C12.05 7.24999 12.9917 7.64165 13.775 8.42499C14.5583 9.20832 14.95 10.15 14.95 11.25C14.95 12.35 14.5583 13.2917 13.775 14.075C12.9917 14.8583 12.05 15.25 10.95 15.25Z" fill="#808191"/>
</svg>
