<svg width="13" height="14" viewBox="0 0 13 14" fill="none" xmlns="http://www.w3.org/2000/svg">
<path d="M11.574 13.197C11.8669 13.4899 12.3418 13.4899 12.6347 13.197C12.9276 12.9041 12.9276 12.4292 12.6347 12.1363L11.574 13.197ZM10.021 6.33331C10.021 8.68052 8.11821 10.5833 5.771 10.5833V12.0833C8.94663 12.0833 11.521 9.50895 11.521 6.33331H10.021ZM5.771 10.5833C3.42379 10.5833 1.521 8.68052 1.521 6.33331H0.0209961C0.0209961 9.50895 2.59536 12.0833 5.771 12.0833V10.5833ZM1.521 6.33331C1.521 3.9861 3.42379 2.08331 5.771 2.08331V0.583313C2.59536 0.583313 0.0209961 3.15768 0.0209961 6.33331H1.521ZM5.771 2.08331C8.11821 2.08331 10.021 3.9861 10.021 6.33331H11.521C11.521 3.15768 8.94663 0.583313 5.771 0.583313V2.08331ZM12.6347 12.1363L9.84294 9.3446L8.78228 10.4053L11.574 13.197L12.6347 12.1363Z" fill="#808191"/>
</svg>
